<svg xmlns="http://www.w3.org/2000/svg" width="512" height="512" viewBox="0 0 512 512"><g id="logo512" transform="translate(-32.885 -12.969)"><path id="Icon_ionic-md-headset" fill="#fafafa" d="M262.84,3.668C136.686,3.668,4.5,109.435,4.5,244.351V434.273c0,44.972,34.038,81.4,76.168,81.4h76.168V297.5H55.319V244.351c0-104.934,109.335-186.419,207.521-186.419s202.842,81.361,202.842,186.419V297.5H364.163V515.544h76.168c42.131,0,76.168-36.3,76.168-81.4v-189.8C516.5,109.435,388.994,3.668,262.84,3.668Z" data-name="Icon ionic-md-headset" transform="translate(28.385 9.301)"/><path id="Icon_ionic-md-musical-note" fill="#fafafa" d="M38.718,4.5V56.762a19.768,19.768,0,1,0,9.89,17.088V24.3H68.436V4.5Z" data-name="Icon ionic-md-musical-note" transform="translate(214.204 431.312)"/><path id="Icon_ionic-md-musical-note-2" fill="#fafafa" d="M38.718,4.5V56.762a19.768,19.768,0,1,0,9.89,17.088V24.3H68.436V4.5Z" data-name="Icon ionic-md-musical-note" transform="translate(286.442 408.339)"/><path id="Icon_ionic-md-musical-note-3" fill="#fafafa" d="M38.718,4.5V56.762a19.768,19.768,0,1,0,9.89,17.088V24.3H68.436V4.5Z" data-name="Icon ionic-md-musical-note" transform="translate(202.718 308.063)"/><path id="Icon_ionic-md-musical-note-4" fill="#fafafa" d="M38.718,4.5V56.762a19.768,19.768,0,1,0,9.89,17.088V24.3H68.436V4.5Z" data-name="Icon ionic-md-musical-note" transform="translate(286.442 283.941)"/></g></svg>